<svg width="68" height="71" viewBox="0 0 68 71" fill="none" xmlns="http://www.w3.org/2000/svg">
<path d="M11.3333 23.6667V17.75C11.3333 16.1808 11.9303 14.6759 12.993 13.5663C14.0557 12.4567 15.4971 11.8333 17 11.8333H22.6666M11.3333 47.3333V53.25C11.3333 54.8192 11.9303 56.3241 12.993 57.4337C14.0557 58.5433 15.4971 59.1667 17 59.1667H22.6666M45.3333 11.8333H51C52.5029 11.8333 53.9442 12.4567 55.0069 13.5663C56.0696 14.6759 56.6666 16.1808 56.6666 17.75V23.6667M45.3333 59.1667H51C52.5029 59.1667 53.9442 58.5433 55.0069 57.4337C56.0696 56.3241 56.6666 54.8192 56.6666 53.25V47.3333M25.5 29.5833H25.5283M42.5 29.5833H42.5283M26.9166 44.5229C27.84 43.539 28.942 42.7573 30.1583 42.2237C31.3746 41.69 32.6807 41.4152 34 41.4152C35.3193 41.4152 36.6253 41.69 37.8416 42.2237C39.0579 42.7573 40.16 43.539 41.0833 44.5229" stroke="black" stroke-width="2" stroke-linecap="round" stroke-linejoin="round"/>
</svg>
